HIERARCHY
ROOT hip
{
  OFFSET 279.657 78.3256 -26.8452
  CHANNELS 6 Xposition Yposition Zposition Zrotation Xrotation Yrotation
  JOINT abdomen
  {
    OFFSET 0 20.6881 -0.73152
    CHANNELS 3 Zrotation Xrotation Yrotation
    JOINT chest
    {
      OFFSET 0 11.7043 -0.48768
      CHANNELS 3 Zrotation Xrotation Yrotation
      JOINT neck
      {
        OFFSET 0 22.1894 -2.19456
        CHANNELS 3 Zrotation Xrotation Yrotation
        JOINT head
        {
          OFFSET -0.24384 7.07133 1.2192
          CHANNELS 3 Zrotation Xrotation Yrotation
          JOINT leftEye
          {
            OFFSET 4.14528 8.04674 8.04672
            CHANNELS 3 Zrotation Xrotation Yrotation
            End Site
            {
              OFFSET 1 0 0
            }
          }
          JOINT rightEye
          {
            OFFSET -3.6576 8.04674 8.04672
            CHANNELS 3 Zrotation Xrotation Yrotation
            End Site
            {
              OFFSET 1 0 0
            }
          }
        }
      }
      JOINT rCollar
      {
        OFFSET -2.68224 19.2634 -4.8768
        CHANNELS 3 Zrotation Xrotation Yrotation
        JOINT rShldr
        {
          OFFSET -8.77824 -1.95073 1.46304
          CHANNELS 3 Zrotation Xrotation Yrotation
          JOINT rForeArm
          {
            OFFSET -28.1742 -1.7115 0.48768
            CHANNELS 3 Zrotation Xrotation Yrotation
            JOINT rHand
            {
              OFFSET -22.5879 0.773209 7.07136
              CHANNELS 3 Zrotation Xrotation Yrotation
              JOINT rThumb1
              {
                OFFSET -1.2192 -0.487915 3.41376
                CHANNELS 3 Zrotation Xrotation Yrotation
                JOINT rThumb2
                {
                  OFFSET -3.37035 -0.52449 3.41376
                  CHANNELS 3 Zrotation Xrotation Yrotation
                  End Site
                  {
                    OFFSET -1.78271 -1.18214 1.43049
                  }
                }
              }
              JOINT rIndex1
              {
                OFFSET -7.75947 0.938293 5.60832
                CHANNELS 3 Zrotation Xrotation Yrotation
                JOINT rIndex2
                {
                  OFFSET -2.54057 -0.884171 1.56538
                  CHANNELS 3 Zrotation Xrotation Yrotation
                  End Site
                  {
                    OFFSET -1.62519 -0.234802 1.16502
                  }
                }
              }
              JOINT rMid1
              {
                OFFSET -8.24714 1.18213 3.41376
                CHANNELS 3 Zrotation Xrotation Yrotation
                JOINT rMid2
                {
                  OFFSET -3.10165 -0.590103 1.0647
                  CHANNELS 3 Zrotation Xrotation Yrotation
                  End Site
                  {
                    OFFSET -2.48547 -0.328903 0.83742
                  }
                }
              }
              JOINT rRing1
              {
                OFFSET -8.82822 0.546677 1.51678
                CHANNELS 3 Zrotation Xrotation Yrotation
                JOINT rRing2
                {
                  OFFSET -2.60934 -0.819778 -0.0198488
                  CHANNELS 3 Zrotation Xrotation Yrotation
                  End Site
                  {
                    OFFSET -2.33842 -0.294052 0.168128
                  }
                }
              }
              JOINT rPinky1
              {
                OFFSET -8.27202 -0.0477905 -0.4584
                CHANNELS 3 Zrotation Xrotation Yrotation
                JOINT rPinky2
                {
                  OFFSET -1.82734 -0.647385 -0.700984
                  CHANNELS 3 Zrotation Xrotation Yrotation
                  End Site
                  {
                    OFFSET -1.69225 -0.51767 -0.607171
                  }
                }
              }
            }
          }
        }
      }
      JOINT lCollar
      {
        OFFSET 2.68224 19.2634 -4.8768
        CHANNELS 3 Zrotation Xrotation Yrotation
        JOINT lShldr
        {
          OFFSET 8.77824 -1.95073 1.46304
          CHANNELS 3 Zrotation Xrotation Yrotation
          JOINT lForeArm
          {
            OFFSET 28.1742 -1.7115 0.48768
            CHANNELS 3 Zrotation Xrotation Yrotation
            JOINT lHand
            {
              OFFSET 22.5879 0.773209 7.07136
              CHANNELS 3 Zrotation Xrotation Yrotation
              JOINT lThumb1
              {
                OFFSET 1.2192 -0.487915 3.41376
                CHANNELS 3 Zrotation Xrotation Yrotation
                JOINT lThumb2
                {
                  OFFSET 3.37035 -0.52449 3.41376
                  CHANNELS 3 Zrotation Xrotation Yrotation
                  End Site
                  {
                    OFFSET 1.78271 -1.18214 1.43049
                  }
                }
              }
              JOINT lIndex1
              {
                OFFSET 7.75947 0.938293 5.60832
                CHANNELS 3 Zrotation Xrotation Yrotation
                JOINT lIndex2
                {
                  OFFSET 2.54057 -0.884171 1.56538
                  CHANNELS 3 Zrotation Xrotation Yrotation
                  End Site
                  {
                    OFFSET 1.62519 -0.234802 1.16502
                  }
                }
              }
              JOINT lMid1
              {
                OFFSET 8.24714 1.18213 3.41376
                CHANNELS 3 Zrotation Xrotation Yrotation
                JOINT lMid2
                {
                  OFFSET 3.10165 -0.590103 1.0647
                  CHANNELS 3 Zrotation Xrotation Yrotation
                  End Site
                  {
                    OFFSET 2.48547 -0.328903 0.83742
                  }
                }
              }
              JOINT lRing1
              {
                OFFSET 8.82822 0.546677 1.51678
                CHANNELS 3 Zrotation Xrotation Yrotation
                JOINT lRing2
                {
                  OFFSET 2.60934 -0.819778 -0.0198488
                  CHANNELS 3 Zrotation Xrotation Yrotation
                  End Site
                  {
                    OFFSET 2.33842 -0.294052 0.168128
                  }
                }
              }
              JOINT lPinky1
              {
                OFFSET 8.27202 -0.0477905 -0.4584
                CHANNELS 3 Zrotation Xrotation Yrotation
                JOINT lPinky2
                {
                  OFFSET 1.82734 -0.647385 -0.700984
                  CHANNELS 3 Zrotation Xrotation Yrotation
                  End Site
                  {
                    OFFSET 1.69225 -0.51767 -0.607171
                  }
                }
              }
            }
          }
        }
      }
    }
  }
  JOINT rButtock
  {
    OFFSET -8.77824 4.35084 1.2192
    CHANNELS 3 Zrotation Xrotation Yrotation
    JOINT rThigh
    {
      OFFSET 0 -1.70687 -2.19456
      CHANNELS 3 Zrotation Xrotation Yrotation
      JOINT rShin
      {
        OFFSET 0 -36.8199 0.73152
        CHANNELS 3 Zrotation Xrotation Yrotation
        JOINT rFoot
        {
          OFFSET 0.73152 -45.1104 -5.12064
          CHANNELS 3 Zrotation Xrotation Yrotation
          End Site
          {
            OFFSET -1.1221 -3.69964 12.103
          }
        }
      }
    }
  }
  JOINT lButtock
  {
    OFFSET 8.77824 4.35084 1.2192
    CHANNELS 3 Zrotation Xrotation Yrotation
    JOINT lThigh
    {
      OFFSET 0 -1.70687 -2.19456
      CHANNELS 3 Zrotation Xrotation Yrotation
      JOINT lShin
      {
        OFFSET 0 -36.8199 0.73152
        CHANNELS 3 Zrotation Xrotation Yrotation
        JOINT lFoot
        {
          OFFSET -0.73152 -45.1104 -5.12064
          CHANNELS 3 Zrotation Xrotation Yrotation
          End Site
          {
            OFFSET 1.1221 -3.69964 12.103
          }
        }
      }
    }
  }
}
MOTION
Frames:	4
Frame Time:	0.00833333
-211.968 83.185 0.816818 2.38048 0.0111362 -0.0455976 -3.13123 0.0020855 -0.0845037 -0.863235 0.0181967 -0.149332 3.71365e-015 -7.95139e-016 -7.45443e-016 1.16724e-014 3.18055e-015 -2.18974e-015 -0 0 0 -0 0 0 2.28547e-015 1.21523e-016 -9.93923e-017 4.32836e-014 2.05618e-015 -6.16232e-015 7.34708e-013 -1.26427e-013 -1.68569e-013 8.22266e-012 6.48535e-013 -1.39626e-012 1.94268e-011 1.1366e-012 -3.37457e-012 3.3531e-011 1.96876e-012 -5.82201e-012 1.94352e-011 1.13983e-012 -3.37457e-012 7.73091 5.47488 0.417314 1.94271e-011 1.13715e-012 -3.37139e-012 2.90554 0.965183 0.102902 1.94351e-011 1.13705e-012 -3.3698e-012 10.2786 0.731801 0.0259123 1.94238e-011 1.13665e-012 -3.36503e-012 2.22167 -0.733487 -0.20892 2.1873e-015 1.26958e-016 -4.96962e-016 3.9442e-014 2.43511e-015 -7.7526e-015 7.09164e-013 2.97183e-013 -1.145e-013 8.24197e-012 2.32007e-013 -1.42807e-012 1.94147e-011 1.14663e-012 -3.36503e-012 3.35465e-011 1.98467e-012 -5.81564e-012 1.94085e-011 1.14977e-012 -3.35549e-012 -7.73091 5.47488 -0.417314 1.94131e-011 1.14748e-012 -3.36821e-012 -2.90554 0.965183 -0.102902 1.94143e-011 1.14719e-012 -3.36741e-012 -10.2786 0.731801 -0.0259123 1.94173e-011 1.14778e-012 -3.37775e-012 -2.22167 -0.733487 0.20892 -2.03217e-016 0 -3.88251e-019 -1.9184 -1.93503 0.0146181 -0.00850349 -2.07867 -0.0697864 -0.459072 4.0001 0.132519 2.03217e-016 0 3.88251e-019 -2.83783 -9.3263 0.322324 -0.00902742 11.308 -0.235103 0.526932 -1.99513 -0.0183198 
-205.855 81.1191 -5.89501 11.1626 16.2282 23.4684 -5.90365 -0.124479 1.11792 -0.437855 1.25472 0.146335 -3.46854 3.59156 -2.31736 8.64413 -9.0149 -1.96448 -0 0 0 -0 0 0 -8.63025e-014 3.42311e-013 4.78062e-014 23.3122 11.8588 -2.53618 -20.2964 -18.0653 15.1576 0.160242 -9.11992 -1.23001 1.83784e-009 3.39533e-010 2.31769e-009 3.10472e-009 5.90348e-010 4.05057e-009 1.83785e-009 3.39535e-010 2.31769e-009 7.73091 5.47488 0.417314 1.83784e-009 3.39533e-010 2.3177e-009 2.90554 0.965183 0.102902 1.83785e-009 3.39533e-010 2.3177e-009 10.2786 0.731801 0.0259123 1.83783e-009 3.39534e-010 2.3177e-009 2.22167 -0.733487 -0.20892 -8.63666e-014 3.42311e-013 4.74983e-014 -22.6142 17.7349 -0.811452 23.1948 -21.067 -14.8504 -0.00340069 -1.68978 0.237531 9.18991e-010 2.50792e-009 -3.21062e-009 1.60493e-009 4.33738e-009 -5.54507e-009 9.18986e-010 2.50792e-009 -3.21061e-009 -7.73091 5.47488 -0.417314 9.1899e-010 2.50792e-009 -3.21062e-009 -2.90554 0.965183 -0.102902 9.1899e-010 2.50792e-009 -3.21062e-009 -10.2786 0.731801 -0.0259123 9.18995e-010 2.50792e-009 -3.21064e-009 -2.22167 -0.733487 0.20892 -2.03217e-016 0 -3.88251e-019 -4.99781 -6.28474 -1.08509 0.0578178 11.263 0.163693 -1.1529 -3.8043 -3.2723 2.03217e-016 0 3.88251e-019 -3.01204 -8.95958 1.16717 -0.0243846 17.8281 -0.350627 1.1855 -9.39744 3.1104 
-205.562 80.9734 -5.85625 6.7911 24.0944 52.397 -8.79382 -0.28968 2.40169 -0.00669379 2.54583 0.46401 -6.82515 7.43466 -4.79767 17.0833 -18.5124 -4.22101 -0 0 0 -0 0 0 -1.85726e-013 6.75797e-013 9.79387e-014 49.1907 24.2879 -5.62565 -30.2163 -32.661 35.9434 -0.121083 -18.5006 -2.60836 3.88713e-009 7.20602e-010 4.89544e-009 6.56664e-009 1.25306e-009 8.55684e-009 3.88714e-009 7.20603e-010 4.89543e-009 7.73091 5.47488 0.417314 3.88713e-009 7.20603e-010 4.89544e-009 2.90554 0.965183 0.102902 3.88714e-009 7.20602e-010 4.89544e-009 10.2786 0.731801 0.0259123 3.88713e-009 7.20604e-010 4.89544e-009 2.22167 -0.733487 -0.20892 -1.8575e-013 6.75792e-013 9.77306e-014 -45.8977 36.4934 -1.88208 33.6605 -38.1871 -37.3327 0.00965007 -3.35005 0.4719 1.91184e-009 5.31856e-009 -6.79127e-009 3.33971e-009 9.19834e-009 -1.17293e-008 1.91183e-009 5.31856e-009 -6.79126e-009 -7.73091 5.47488 -0.417314 1.91184e-009 5.31856e-009 -6.79127e-009 -2.90554 0.965183 -0.102902 1.91183e-009 5.31856e-009 -6.79127e-009 -10.2786 0.731801 -0.0259123 1.91184e-009 5.31856e-009 -6.79128e-009 -2.22167 -0.733487 0.20892 -2.03217e-016 0 -3.88251e-019 -8.40236 -10.8394 -2.25054 1.01709e-005 25.2965 0.446618 -2.92289 -11.968 -7.05013 2.03217e-016 0 3.88251e-019 -3.18856 -8.58277 2.04474 -0.00838306 24.726 -0.487247 2.79333 -17.1315 6.61859 
-205.261 80.8305 -5.79075 -1.11196 17.719 75.9606 -11.4326 -0.376967 3.52285 0.374559 3.72748 0.739128 -9.52332 10.7036 -7.06191 23.8905 -26.9095 -6.5303 -0 0 0 -0 0 0 -2.63479e-013 1.02669e-012 1.43617e-013 73.6747 35.2651 -9.13256 -29.8645 -37.2029 59.2211 -0.818158 -27.306 -4.101 5.47466e-009 1.01633e-009 6.95983e-009 9.24709e-009 1.76711e-009 1.21633e-008 5.47467e-009 1.01633e-009 6.95983e-009 7.73091 5.47488 0.417314 5.47466e-009 1.01633e-009 6.95983e-009 2.90554 0.965183 0.102902 5.47467e-009 1.01633e-009 6.95983e-009 10.2786 0.731801 0.0259123 5.47466e-009 1.01633e-009 6.95984e-009 2.22167 -0.733487 -0.20892 -2.63475e-013 1.02668e-012 1.43489e-013 -65.4874 53.147 -3.86784 30.8202 -42.8182 -64.6304 0.0319692 -5.06899 0.715079 2.71814e-009 7.52146e-009 -9.62514e-009 4.74769e-009 1.30082e-008 -1.66236e-008 2.71814e-009 7.52146e-009 -9.62513e-009 -7.73091 5.47488 -0.417314 2.71814e-009 7.52146e-009 -9.62514e-009 -2.90554 0.965183 -0.102902 2.71814e-009 7.52146e-009 -9.62514e-009 -10.2786 0.731801 -0.0259123 2.71815e-009 7.52145e-009 -9.62515e-009 -2.22167 -0.733487 0.20892 -2.03217e-016 0 -3.88251e-019 -11.6728 -14.9626 -3.37964 -0.202992 37.9439 0.787599 -5.43316 -19.1213 -10.6537 2.03217e-016 0 3.88251e-019 -3.39322 -8.22127 2.85199 0.0380042 30.8676 -0.629452 5.1131 -23.9084 10.1187 
